<svg xmlns="http://www.w3.org/2000/svg" viewBox="0 0 400 400" font-family="Roboto, 'Helvetica Neue', Arial, sans-serif">
  <rect width="400" height="400" fill="#E9EDF3"/>
  <rect x="40" y="24" width="320" height="352" rx="6" fill="#FFFFFF" stroke="#C3C9D4"/>
  <rect x="40" y="24" width="320" height="54" rx="6" fill="#006874"/>
  <rect x="40" y="60" width="320" height="18" fill="#006874"/>
  <text x="60" y="50" font-size="17" font-weight="800" fill="#FFFFFF">ARRIVAL SERVICE SHEET</text>
  <text x="60" y="68" font-size="11" fill="#9EEFFD">Sakura Nippon DMC · DMC-TYO-994</text>
  <g font-size="13" fill="#1D1B20">
    <text x="60" y="108" fill="#6B7280" font-size="11">GROUP</text><text x="150" y="108" font-weight="700">Nusantara Odyssey · TK-OUT-889</text>
    <text x="60" y="134" fill="#6B7280" font-size="11">DATE</text><text x="150" y="134" font-weight="700">2 Oct 2026 · 16:50 JST</text>
    <text x="60" y="160" fill="#6B7280" font-size="11">FLIGHT</text><text x="150" y="160" font-weight="700">JL720 · NRT T1</text>
    <text x="60" y="186" fill="#6B7280" font-size="11">GUESTS</text><text x="150" y="186" font-weight="700">14 + 1 tour leader</text>
    <text x="60" y="212" fill="#6B7280" font-size="11">VEHICLE</text><text x="150" y="212" font-weight="700">Toyota Coaster #4</text>
  </g>
  <path d="M60 232 H340" stroke="#D5DAE2"/>
  <text x="60" y="256" font-size="11" fill="#6B7280">GUIDE</text>
  <path d="M60 292 c14 -30 22 6 34 -14 s16 22 30 -6 s14 16 30 2" fill="none" stroke="#1F3A8A" stroke-width="2.5" stroke-linecap="round"/>
  <path d="M60 304 H170" stroke="#9CA3AF"/>
  <text x="60" y="320" font-size="11" fill="#1D1B20">Yumi Sato</text>
  <text x="210" y="256" font-size="11" fill="#6B7280">TOUR LEADER</text>
  <path d="M210 290 c10 -22 20 14 30 -10 s14 -12 24 8 s18 -20 34 -2" fill="none" stroke="#1F3A8A" stroke-width="2.5" stroke-linecap="round"/>
  <path d="M210 304 H320" stroke="#9CA3AF"/>
  <text x="210" y="320" font-size="11" fill="#1D1B20">Rina Hartono</text>
  <g transform="rotate(-14 300 190)">
    <circle cx="300" cy="190" r="34" fill="none" stroke="#BA1A1A" stroke-width="3" opacity="0.75"/>
    <text x="300" y="187" font-size="11" font-weight="800" fill="#BA1A1A" text-anchor="middle" opacity="0.8">SERVICE</text>
    <text x="300" y="201" font-size="11" font-weight="800" fill="#BA1A1A" text-anchor="middle" opacity="0.8">DELIVERED</text>
  </g>
  <text x="200" y="358" font-size="10" fill="#9CA3AF" text-anchor="middle">Sample document · demo data</text>
</svg>
